<svg width="32" height="32" viewBox="0 0 32 32" fill="none" xmlns="http://www.w3.org/2000/svg">
  <rect width="32" height="32" rx="6" fill="#0A0A0A"/>
  <path d="M16 4C20.4183 4 24 7.58172 24 12C24 16.4183 20.4183 20 16 20C11.5817 20 8 16.4183 8 12C8 7.58172 11.5817 4 16 4Z" fill="#00C2B2"/>
  <path d="M16 7C18.7614 7 21 9.23858 21 12C21 14.7614 18.7614 17 16 17C13.2386 17 11 14.7614 11 12C11 9.23858 13.2386 7 16 7Z" fill="#0A0A0A"/>
  <path d="M14 22H18C20.2091 22 22 23.7909 22 26V28H10V26C10 23.7909 11.7909 22 14 22Z" fill="#D6B35C"/>
</svg>